<?xml version="1.0" encoding="UTF-8"?>
<svg version="1.1" xmlns="http://www.w3.org/2000/svg" width="253" height="295">
<path d="M0 0 C4.80894047 3.41462515 6.09842989 8.86565414 7.9765625 14.1953125 C8.34390503 15.20838974 8.71124756 16.22146698 9.08972168 17.26524353 C10.2781257 20.54832407 11.45142074 23.83659472 12.625 27.125 C13.83589367 30.47935774 15.05082194 33.83223517 16.26608276 37.18501282 C17.06576639 39.39182835 17.86421474 41.59909191 18.66140747 43.80680847 C22.92792902 55.61087381 27.43996726 67.3057225 32 79 C42.89 79.495 42.89 79.495 54 80 C54.33 80.99 54.66 81.98 55 83 C54.43410156 83.12117188 53.86820312 83.24234375 53.28515625 83.3671875 C52.55167969 83.53476563 51.81820312 83.70234375 51.0625 83.875 C50.33160156 84.03742188 49.60070312 84.19984375 48.84765625 84.3671875 C46.79299706 84.82961523 46.79299706 84.82961523 46 87 C45.91332745 89.62627133 45.88439865 92.22562483 45.90234375 94.8515625 C45.9037587 95.62559418 45.90517365 96.39962585 45.90663147 97.19711304 C45.91223597 99.67311442 45.92478917 102.14902588 45.9375 104.625 C45.94251442 106.30208203 45.94707743 107.97916547 45.95117188 109.65625 C45.96220685 113.77086806 45.97947446 117.88541878 46 122 C47.59138207 120.25151657 49.18248736 118.50278262 50.7734375 116.75390625 C52.1025415 115.29319702 52.1025415 115.29319702 53.45849609 113.80297852 C59.0059483 107.68479419 64.27435371 101.46331854 69.30078125 94.90625 C69.86152344 94.2771875 70.42226562 93.648125 71 93 C71.66 93 72.32 93 73 93 C74.07525194 90.34771188 75.09456151 87.71631546 76 85 C74.741875 84.855625 73.48375 84.71125 72.1875 84.5625 C69.57332877 84.26251314 67.52560108 83.84186703 65 83 C65 82.34 65 81.68 65 81 C69.23379186 78.88310407 74.84839782 79.81506995 79.5 79.8125 C81.24990234 79.79413086 81.24990234 79.79413086 83.03515625 79.77539062 C84.70384766 79.77249023 84.70384766 79.77249023 86.40625 79.76953125 C87.43041016 79.76542236 88.45457031 79.76131348 89.50976562 79.75708008 C92 80 92 80 94 82 C91.82707901 83.85100677 90.40467142 84.92736667 87.5625 85.4375 C82.14403785 86.62691852 78.90973714 91.12060622 75.625 95.3125 C72.41812103 99.32243714 69.13938073 103.03604659 65.41015625 106.5625 C63.76534695 108.14973012 63.76534695 108.14973012 62 111 C62.33950441 114.5610859 64.18384791 117.08455862 66.140625 120.0078125 C66.79305176 120.98661377 67.44547852 121.96541504 68.11767578 122.97387695 C68.82134277 124.01374756 69.52500977 125.05361816 70.25 126.125 C71.32677002 127.72251099 71.32677002 127.72251099 72.42529297 129.35229492 C74.60695041 132.57507732 76.80117385 135.78891242 79 139 C79.63776367 139.93634277 80.27552734 140.87268555 80.93261719 141.83740234 C82.64682134 144.34117652 84.38071835 146.829616 86.125 149.3125 C86.88538574 150.42165771 86.88538574 150.42165771 87.66113281 151.55322266 C90.64595308 155.73137683 93.06398717 158.08857664 98 160 C98 160.66 98 161.32 98 162 C89.21617627 163.1644262 81.71982621 163.91653736 74 159 C68.52554604 154.51016006 65.12793782 147.66230868 61.390625 141.734375 C57.77535126 136.03267463 53.88076529 130.52298039 50 125 C47.27876168 127.22129537 46.10131772 128.37461968 45.5300293 131.90087891 C45.54461182 132.99835449 45.55919434 134.09583008 45.57421875 135.2265625 C45.58259766 136.4228125 45.59097656 137.6190625 45.59960938 138.8515625 C45.64311523 140.71941406 45.64311523 140.71941406 45.6875 142.625 C45.69716797 143.87796875 45.70683594 145.1309375 45.71679688 146.421875 C45.49216425 152.39164173 45.49216425 152.39164173 47 158 C48.88764903 158.68472665 48.88764903 158.68472665 51.0625 159.125 C52.16271484 159.37636719 52.16271484 159.37636719 53.28515625 159.6328125 C53.85105469 159.75398437 54.41695313 159.87515625 55 160 C55 160.66 55 161.32 55 162 C42.73441884 163.96249299 30.31846333 162.96615399 18 162 C18.33 161.01 18.66 160.02 19 159 C20.134375 158.855625 21.26875 158.71125 22.4375 158.5625 C25.80777201 158.38828522 25.80777201 158.38828522 27 157 C28.65607392 142.08504053 28.11475392 126.91465598 28.0625 111.9375 C28.05747291 109.41341235 28.05291215 106.88932373 28.04882812 104.36523438 C28.03792311 98.24346797 28.02128167 92.12173867 28 86 C21.26751884 84.37473154 21.26751884 84.37473154 14.40234375 83.5859375 C13.66435547 83.54726562 12.92636719 83.50859375 12.16601562 83.46875 C11.43060547 83.4378125 10.69519531 83.406875 9.9375 83.375 C9.16728516 83.33632812 8.39707031 83.29765625 7.60351562 83.2578125 C5.73600523 83.16501695 3.86803748 83.08149876 2 83 C2.495 81.515 2.495 81.515 3 80 C7.455 79.505 7.455 79.505 12 79 C11.61139694 72.39374804 9.60618202 67.04424257 7.05859375 60.953125 C6 58 6 58 6 54 C4.329375 54.2475 4.329375 54.2475 2.625 54.5 C-5.64691868 55.5194266 -13.74970799 54.98301352 -22 54 C-22.18175781 54.61746094 -22.36351563 55.23492187 -22.55078125 55.87109375 C-23.83371288 60.19358649 -25.15123541 64.48842456 -26.625 68.75 C-27.77610572 72.14304985 -28.54294158 75.43494433 -29 79 C-25.04 79.33 -21.08 79.66 -17 80 C-16.67 80.99 -16.34 81.98 -16 83 C-25.57 83 -35.14 83 -45 83 C-45.33 82.34 -45.66 81.68 -46 81 C-45.39671875 80.9484375 -44.7934375 80.896875 -44.171875 80.84375 C-43.37265625 80.7303125 -42.5734375 80.616875 -41.75 80.5 C-40.96109375 80.4071875 -40.1721875 80.314375 -39.359375 80.21875 C-33.58996165 77.23852324 -31.85320064 68.20061518 -29.875 62.375 C-29.43885376 61.11429688 -29.43885376 61.11429688 -28.99389648 59.828125 C-27.15298705 54.47552475 -25.371583 49.10425749 -23.60546875 43.7265625 C-15.8988955 20.27333117 -15.8988955 20.27333117 -11.5 9.1875 C-11.17394775 8.35798828 -10.84789551 7.52847656 -10.51196289 6.67382812 C-8.035559 0.58981537 -6.66364126 -0.66636413 0 0 Z M-9 17 C-10.41037061 20.89445502 -11.81606121 24.79056456 -13.2175293 28.68823242 C-13.69445082 30.01258317 -14.172625 31.33648355 -14.65209961 32.65991211 C-15.34302217 34.56766194 -16.02935029 36.47701244 -16.71484375 38.38671875 C-17.12855225 39.53358154 -17.54226074 40.68044434 -17.96850586 41.86206055 C-18.86178502 44.57953203 -19.51815354 47.18500226 -20 50 C-16.56341292 50.22580354 -13.12582782 50.42762697 -9.6875 50.625 C-8.71103516 50.68945312 -7.73457031 50.75390625 -6.72851562 50.8203125 C-5.79072266 50.871875 -4.85292969 50.9234375 -3.88671875 50.9765625 C-2.59060669 51.05511475 -2.59060669 51.05511475 -1.26831055 51.13525391 C1.28474299 51.17430966 1.28474299 51.17430966 4 49 C2.61574996 45.08444092 1.22812223 41.17010034 -0.16259766 37.25683594 C-0.63487421 35.92643385 -1.10623905 34.59570773 -1.57666016 33.26464844 C-2.25441781 31.34743968 -2.93548526 29.43143418 -3.6171875 27.515625 C-4.22989502 25.78747559 -4.22989502 25.78747559 -4.85498047 24.02441406 C-5.7806053 21.5795014 -6.7700713 19.30179427 -8 17 C-8.33 17 -8.66 17 -9 17 Z " fill="#392E28" transform="translate(67,20)"/>
<path d="M0 0 C2.88582364 2.227979 3.86570056 4.71826343 5.1015625 8.08984375 C5.50133301 9.16387451 5.90110352 10.23790527 6.31298828 11.34448242 C6.74595215 12.53017822 7.17891602 13.71587402 7.625 14.9375 C8.59207925 17.5370971 9.56082733 20.13602827 10.53125 22.734375 C10.79471222 23.44216599 11.05817444 24.14995697 11.32962036 24.87919617 C14.79741964 34.17696553 18.38346729 43.42938708 21.96356201 52.68435669 C23.11864736 55.67107391 24.27161007 58.65860416 25.42431641 61.64624023 C26.13952942 63.49727906 26.85485618 65.34827395 27.5703125 67.19921875 C27.90212524 68.05940613 28.23393799 68.91959351 28.57580566 69.80584717 C28.88095093 70.5939679 29.18609619 71.38208862 29.50048828 72.1940918 C29.76709259 72.88383591 30.0336969 73.57358002 30.30838013 74.28422546 C31.52713374 77.48375733 31.52713374 77.48375733 34.5625 79.125 C35.366875 79.41375 36.17125 79.7025 37 80 C36.505 81.485 36.505 81.485 36 83 C31.80125838 83.19279158 27.60222204 83.3714261 23.40234375 83.53710938 C21.97444624 83.59541735 20.54669964 83.65755423 19.11914062 83.72363281 C17.06408166 83.81808538 15.00886899 83.89863877 12.953125 83.9765625 C11.71723633 84.02893066 10.48134766 84.08129883 9.20800781 84.13525391 C6.13525065 84.00570235 4.554094 83.63395097 2 82 C2.495 80.515 2.495 80.515 3 79 C7.455 78.505 7.455 78.505 12 78 C11.61008563 71.37145574 9.59152731 65.9761269 7.05859375 59.85546875 C6 57 6 57 6 54 C-2.91 54 -11.82 54 -21 54 C-26.14431256 65.71212233 -26.14431256 65.71212233 -28 78 C-24.37 78.33 -20.74 78.66 -17 79 C-16.67 80.32 -16.34 81.64 -16 83 C-19.68699487 83.1984578 -23.37459622 83.38178602 -27.0625 83.5625 C-28.10083984 83.61857422 -29.13917969 83.67464844 -30.20898438 83.73242188 C-35.64135615 83.99110625 -40.65204485 84.02407652 -46 83 C-45.67 81.68 -45.34 80.36 -45 79 C-44.41992188 79.04125 -43.83984375 79.0825 -43.2421875 79.125 C-40.27821449 78.96848657 -38.56756138 78.52528399 -36 77 C-33.55461736 72.79441439 -32.23113281 68.2535803 -30.81738281 63.62451172 C-29.29280394 58.72928385 -27.56342587 53.90309908 -25.875 49.0625 C-25.10934515 46.84506239 -24.34372142 44.62761404 -23.578125 42.41015625 C-20.89354281 34.67554841 -18.18614979 26.94943668 -15.425354 19.2416687 C-14.89355005 17.75216746 -14.36532468 16.26138349 -13.84075928 14.76931763 C-13.10395882 12.6759706 -12.35442242 10.58761584 -11.6015625 8.5 C-11.17182129 7.2934375 -10.74208008 6.086875 -10.29931641 4.84375 C-8.02902924 -0.125116 -5.0954002 -0.53077085 0 0 Z M-9 16 C-9.22139648 16.6391333 -9.44279297 17.2782666 -9.67089844 17.93676758 C-10.69640726 20.89564333 -11.72319816 23.85407272 -12.75 26.8125 C-13.09804687 27.81732422 -13.44609375 28.82214844 -13.8046875 29.85742188 C-14.15273437 30.85966797 -14.50078125 31.86191406 -14.859375 32.89453125 C-15.17358398 33.80050049 -15.48779297 34.70646973 -15.81152344 35.63989258 C-17.50867847 40.43815566 -19.26067674 45.21686103 -21 50 C-12.75 50 -4.5 50 4 50 C3.071875 47.195 2.14375 44.39 1.1875 41.5 C0.75860474 40.1996582 0.75860474 40.1996582 0.32104492 38.87304688 C-1.34134882 33.86828319 -3.12086267 28.92751567 -5 24 C-6 21.33333333 -7 18.66666667 -8 16 C-8.33 16 -8.66 16 -9 16 Z " fill="#463C35" transform="translate(175,179)"/>
<path d="M0 0 C5.94 0 11.88 0 18 0 C18.33 0.99 18.66 1.98 19 3 C18.43410156 3.12117188 17.86820313 3.24234375 17.28515625 3.3671875 C16.18494141 3.61855469 16.18494141 3.61855469 15.0625 3.875 C14.33160156 4.03742188 13.60070312 4.19984375 12.84765625 4.3671875 C10.79299706 4.82961523 10.79299706 4.82961523 10 7 C9.91332745 9.62627133 9.88439865 12.22562483 9.90234375 14.8515625 C9.90446617 16.01261002 9.90446617 16.01261002 9.90663147 17.19711304 C9.91223597 19.67311442 9.92478917 22.14902588 9.9375 24.625 C9.94251442 26.30208203 9.94707743 27.97916547 9.95117188 29.65625 C9.96220685 33.77086806 9.97947446 37.88541878 10 42 C11.59138207 40.25151657 13.18248736 38.50278262 14.7734375 36.75390625 C15.65950684 35.7801001 16.54557617 34.80629395 17.45849609 33.80297852 C23.0059483 27.68479419 28.27435371 21.46331854 33.30078125 14.90625 C33.86152344 14.2771875 34.42226562 13.648125 35 13 C35.66 13 36.32 13 37 13 C38.07525194 10.34771188 39.09456151 7.71631546 40 5 C38.741875 4.855625 37.48375 4.71125 36.1875 4.5625 C33.57332877 4.26251314 31.52560108 3.84186703 29 3 C29 2.34 29 1.68 29 1 C33.23379186 -1.11689593 38.84839782 -0.18493005 43.5 -0.1875 C44.66660156 -0.19974609 45.83320313 -0.21199219 47.03515625 -0.22460938 C48.70384766 -0.22750977 48.70384766 -0.22750977 50.40625 -0.23046875 C51.43041016 -0.23457764 52.45457031 -0.23868652 53.50976562 -0.24291992 C56 0 56 0 58 2 C55.82707901 3.85100677 54.40467142 4.92736667 51.5625 5.4375 C46.14403785 6.62691852 42.90973714 11.12060622 39.625 15.3125 C36.41812103 19.32243714 33.13938073 23.03604659 29.41015625 26.5625 C27.76534695 28.14973012 27.76534695 28.14973012 26 31 C26.33950441 34.5610859 28.18384791 37.08455862 30.140625 40.0078125 C30.79305176 40.98661377 31.44547852 41.96541504 32.11767578 42.97387695 C32.82134277 44.01374756 33.52500977 45.05361816 34.25 46.125 C34.96784668 47.19000732 35.68569336 48.25501465 36.42529297 49.35229492 C38.60695041 52.57507732 40.80117385 55.78891242 43 59 C43.63776367 59.93634277 44.27552734 60.87268555 44.93261719 61.83740234 C46.64682134 64.34117652 48.38071835 66.829616 50.125 69.3125 C50.63192383 70.05193848 51.13884766 70.79137695 51.66113281 71.55322266 C54.64595308 75.73137683 57.06398717 78.08857664 62 80 C62 80.66 62 81.32 62 82 C53.21617627 83.1644262 45.71982621 83.91653736 38 79 C32.52554604 74.51016006 29.12793782 67.66230868 25.390625 61.734375 C21.77535126 56.03267463 17.88076529 50.52298039 14 45 C11.13548192 47.2896321 10.08373537 48.42537726 9.54589844 52.11621094 C9.5668457 53.31020508 9.58779297 54.50419922 9.609375 55.734375 C9.62226562 57.02988281 9.63515625 58.32539063 9.6484375 59.66015625 C9.68185634 61.02344824 9.71571609 62.38672949 9.75 63.75 C9.77007293 65.12888064 9.78832233 66.50778912 9.8046875 67.88671875 C9.85184552 71.25851744 9.91765462 74.62890687 10 78 C9.34 78 8.68 78 8 78 C6.57613041 75.15226081 6.84904643 72.71802433 6.82299805 69.53417969 C6.81642685 68.87052902 6.80985565 68.20687836 6.80308533 67.52311707 C6.78334568 65.32270191 6.771687 63.1223551 6.76171875 60.921875 C6.75764322 60.16995125 6.7535677 59.4180275 6.74936867 58.64331818 C6.7285029 54.66179173 6.71420465 50.68029978 6.70483398 46.69873047 C6.69378153 42.59177932 6.65939719 38.48537178 6.61966228 34.37861252 C6.5934761 31.21637995 6.5851403 28.05427634 6.58155251 24.89194489 C6.57668995 23.3785155 6.56508527 21.86509175 6.54651451 20.35176849 C6.52208359 18.22854508 6.52309445 16.10672029 6.5300293 13.98339844 C6.52416306 12.77697693 6.51829681 11.57055542 6.51225281 10.32757568 C7.09432973 6.35645081 8.57717957 4.15178458 11 1 C7.37 1 3.74 1 0 1 C0 0.67 0 0.34 0 0 Z " fill="#483E37" transform="translate(103,100)"/>
<path d="M0 0 C4.82600552 3.41970812 6.12383458 8.92314848 8.01171875 14.265625 C8.57050468 15.80316437 8.57050468 15.80316437 9.14057922 17.37176514 C10.33344915 20.66080349 11.5108927 23.95511324 12.6875 27.25 C13.84469206 30.4584565 15.00505714 33.66575215 16.165802 36.8729248 C16.9376472 39.00852789 17.70708042 41.14500426 18.47409058 43.28234863 C20.4723853 48.83974819 22.51241204 54.3769557 24.62353516 59.89257812 C25.257127 61.5524173 25.257127 61.5524173 25.90351868 63.24578857 C26.7161878 65.36655612 27.53527738 67.48487715 28.36149597 69.60040283 C28.72278091 70.54405701 29.08406586 71.48771118 29.45629883 72.45996094 C29.94082268 73.7066153 29.94082268 73.7066153 30.43513489 74.97845459 C31 77 31 77 30 79 C27.05159594 73.33089602 24.61751941 67.65422594 22.42578125 61.65625 C22.10018723 60.77690292 21.7745932 59.89755585 21.43913269 58.99156189 C20.39265775 56.16259488 19.35246733 53.33136498 18.3125 50.5 C17.59549991 48.55720772 16.87805048 46.6145812 16.16015625 44.67211914 C15.09358343 41.78610125 14.02730249 38.89998075 12.96279907 36.01319885 C10.97882819 30.63501231 8.97949136 25.26322269 6.94921875 19.90234375 C6.31342896 18.22205078 6.31342896 18.22205078 5.66479492 16.5078125 C4.90818092 14.51343444 4.14935436 12.51989386 3.38793945 10.52734375 C2.90200317 9.2434375 2.90200317 9.2434375 2.40625 7.93359375 C1.99342773 6.8516272 1.99342773 6.8516272 1.57226562 5.74780273 C1 4 1 4 1 2 C-1.31 2.33 -3.62 2.66 -6 3 C-6.99 5.64 -7.98 8.28 -9 11 C-8.34 11 -7.68 11 -7 11 C-6.74347656 11.8765625 -6.48695312 12.753125 -6.22265625 13.65625 C-3.69797434 22.0873917 -0.81196191 30.33490564 2.3125 38.5625 C5.46466299 46.89944829 8.60871516 55.23774738 11.625 63.625 C12.15734253 65.05501343 12.15734253 65.05501343 12.70043945 66.51391602 C14.43153331 71.38703076 15.55628388 74.85229179 14 80 C13.34 80 12.68 80 12 80 C12 80.66 12 81.32 12 82 C13.32 82.33 14.64 82.66 16 83 C11.38 83 6.76 83 2 83 C2.495 81.515 2.495 81.515 3 80 C7.455 79.505 7.455 79.505 12 79 C11.61139694 72.39374804 9.60618202 67.04424257 7.05859375 60.953125 C6 58 6 58 6 54 C4.329375 54.2475 4.329375 54.2475 2.625 54.5 C-5.64691868 55.5194266 -13.74970799 54.98301352 -22 54 C-22.18175781 54.61746094 -22.36351563 55.23492187 -22.55078125 55.87109375 C-23.83371288 60.19358649 -25.15123541 64.48842456 -26.625 68.75 C-27.77610572 72.14304985 -28.54294158 75.43494433 -29 79 C-25.04 79.33 -21.08 79.66 -17 80 C-16.67 80.99 -16.34 81.98 -16 83 C-25.57 83 -35.14 83 -45 83 C-45.33 82.34 -45.66 81.68 -46 81 C-45.39671875 80.9484375 -44.7934375 80.896875 -44.171875 80.84375 C-43.37265625 80.7303125 -42.5734375 80.616875 -41.75 80.5 C-40.96109375 80.4071875 -40.1721875 80.314375 -39.359375 80.21875 C-33.58996165 77.23852324 -31.85320064 68.20061518 -29.875 62.375 C-29.43885376 61.11429688 -29.43885376 61.11429688 -28.99389648 59.828125 C-27.15298705 54.47552475 -25.371583 49.10425749 -23.60546875 43.7265625 C-15.8988955 20.27333117 -15.8988955 20.27333117 -11.5 9.1875 C-11.17394775 8.35798828 -10.84789551 7.52847656 -10.51196289 6.67382812 C-8.035559 0.58981537 -6.66364126 -0.66636413 0 0 Z M-9 17 C-10.41037061 20.89445502 -11.81606121 24.79056456 -13.2175293 28.68823242 C-13.69445082 30.01258317 -14.172625 31.33648355 -14.65209961 32.65991211 C-15.34302217 34.56766194 -16.02935029 36.47701244 -16.71484375 38.38671875 C-17.12855225 39.53358154 -17.54226074 40.68044434 -17.96850586 41.86206055 C-18.86178502 44.57953203 -19.51815354 47.18500226 -20 50 C-16.56341292 50.22580354 -13.12582782 50.42762697 -9.6875 50.625 C-8.71103516 50.68945312 -7.73457031 50.75390625 -6.72851562 50.8203125 C-5.79072266 50.871875 -4.85292969 50.9234375 -3.88671875 50.9765625 C-2.59060669 51.05511475 -2.59060669 51.05511475 -1.26831055 51.13525391 C1.28474299 51.17430966 1.28474299 51.17430966 4 49 C2.61574996 45.08444092 1.22812223 41.17010034 -0.16259766 37.25683594 C-0.63487421 35.92643385 -1.10623905 34.59570773 -1.57666016 33.26464844 C-2.25441781 31.34743968 -2.93548526 29.43143418 -3.6171875 27.515625 C-4.22989502 25.78747559 -4.22989502 25.78747559 -4.85498047 24.02441406 C-5.7806053 21.5795014 -6.7700713 19.30179427 -8 17 C-8.33 17 -8.66 17 -9 17 Z " fill="#695F57" transform="translate(67,20)"/>
<path d="M0 0 C5.94 0 11.88 0 18 0 C18.33 0.99 18.66 1.98 19 3 C18.43410156 3.12117188 17.86820313 3.24234375 17.28515625 3.3671875 C16.18494141 3.61855469 16.18494141 3.61855469 15.0625 3.875 C14.33160156 4.03742188 13.60070312 4.19984375 12.84765625 4.3671875 C10.79299706 4.82961523 10.79299706 4.82961523 10 7 C9.91332745 9.62627133 9.88439865 12.22562483 9.90234375 14.8515625 C9.90446617 16.01261002 9.90446617 16.01261002 9.90663147 17.19711304 C9.91223597 19.67311442 9.92478917 22.14902588 9.9375 24.625 C9.94251442 26.30208203 9.94707743 27.97916547 9.95117188 29.65625 C9.96220685 33.77086806 9.97947446 37.88541878 10 42 C11.59138207 40.25151657 13.18248736 38.50278262 14.7734375 36.75390625 C15.65950684 35.7801001 16.54557617 34.80629395 17.45849609 33.80297852 C23.0059483 27.68479419 28.27435371 21.46331854 33.30078125 14.90625 C33.86152344 14.2771875 34.42226562 13.648125 35 13 C35.66 13 36.32 13 37 13 C38.07525194 10.34771188 39.09456151 7.71631546 40 5 C38.741875 4.855625 37.48375 4.71125 36.1875 4.5625 C33.57332877 4.26251314 31.52560108 3.84186703 29 3 C29 2.34 29 1.68 29 1 C33.23379186 -1.11689593 38.84839782 -0.18493005 43.5 -0.1875 C44.66660156 -0.19974609 45.83320313 -0.21199219 47.03515625 -0.22460938 C48.70384766 -0.22750977 48.70384766 -0.22750977 50.40625 -0.23046875 C51.43041016 -0.23457764 52.45457031 -0.23868652 53.50976562 -0.24291992 C56 0 56 0 58 2 C55.82707901 3.85100677 54.40467142 4.92736667 51.5625 5.4375 C46.14403785 6.62691852 42.90973714 11.12060622 39.625 15.3125 C36.41812103 19.32243714 33.13938073 23.03604659 29.41015625 26.5625 C27.76534695 28.14973012 27.76534695 28.14973012 26 31 C26.42338006 34.17535043 27.77296886 37.05512526 29 40 C27.29115995 38.37660195 25.62553283 36.70680947 24 35 C24 34.34 24 33.68 24 33 C21.03 35.31 18.06 37.62 15 40 C16.73388663 44.33471656 18.52386802 47.49470951 21.125 51.3125 C21.84945312 52.38113281 22.57390625 53.44976562 23.3203125 54.55078125 C23.87460938 55.35902344 24.42890625 56.16726562 25 57 C24.67 57.66 24.34 58.32 24 59 C23.45730469 58.24074219 22.91460937 57.48148438 22.35546875 56.69921875 C21.64003906 55.70535156 20.92460938 54.71148437 20.1875 53.6875 C19.47980469 52.70136719 18.77210937 51.71523437 18.04296875 50.69921875 C16.45369163 48.59942813 14.92542371 46.77965031 13 45 C9.73040528 48.48455077 9.64532752 51.04489142 9.70703125 55.734375 C9.7215332 57.67763672 9.7215332 57.67763672 9.73632812 59.66015625 C9.76139217 61.02344354 9.78678698 62.38672479 9.8125 63.75 C9.82755482 65.12889184 9.84124183 66.50779935 9.85351562 67.88671875 C9.88888091 71.25820915 9.93824096 74.62890654 10 78 C9.34 78 8.68 78 8 78 C6.57613041 75.15226081 6.84904643 72.71802433 6.82299805 69.53417969 C6.81642685 68.87052902 6.80985565 68.20687836 6.80308533 67.52311707 C6.78334568 65.32270191 6.771687 63.1223551 6.76171875 60.921875 C6.75764322 60.16995125 6.7535677 59.4180275 6.74936867 58.64331818 C6.7285029 54.66179173 6.71420465 50.68029978 6.70483398 46.69873047 C6.69378153 42.59177932 6.65939719 38.48537178 6.61966228 34.37861252 C6.5934761 31.21637995 6.5851403 28.05427634 6.58155251 24.89194489 C6.57668995 23.3785155 6.56508527 21.86509175 6.54651451 20.35176849 C6.52208359 18.22854508 6.52309445 16.10672029 6.5300293 13.98339844 C6.52416306 12.77697693 6.51829681 11.57055542 6.51225281 10.32757568 C7.09432973 6.35645081 8.57717957 4.15178458 11 1 C7.37 1 3.74 1 0 1 C0 0.67 0 0.34 0 0 Z " fill="#897E77" transform="translate(103,100)"/>
<path d="M0 0 C1 3 1 3 0.37719727 5.62426758 C-0.147448 10.31958803 1.29796133 13.66137154 2.96484375 18.01171875 C3.43308311 19.28678032 3.43308311 19.28678032 3.91078186 20.58760071 C4.90653094 23.29265662 5.92098507 25.99018666 6.9375 28.6875 C7.94719409 31.39659356 8.95286869 34.10708266 9.95350647 36.8195343 C10.57628549 38.50453198 11.20487666 40.18739516 11.83982849 41.86784363 C12.12334671 42.62906021 12.40686493 43.39027679 12.69897461 44.17456055 C12.95069931 44.84263229 13.20242401 45.51070404 13.46177673 46.19902039 C14 48 14 48 14 51 C4.43 51 -5.14 51 -15 51 C-14.34 48.03 -13.68 45.06 -13 42 C-13.66 42 -14.32 42 -15 42 C-12.92513132 33.59667137 -10.13654461 25.51141062 -7.12890625 17.40771484 C-6.36405565 15.34549137 -5.60736059 13.28040004 -4.8515625 11.21484375 C-1.14194598 1.14194598 -1.14194598 1.14194598 0 0 Z M-1 15 C-1.22139648 15.6391333 -1.44279297 16.2782666 -1.67089844 16.93676758 C-2.69640726 19.89564333 -3.72319816 22.85407272 -4.75 25.8125 C-5.09804687 26.81732422 -5.44609375 27.82214844 -5.8046875 28.85742188 C-6.15273437 29.85966797 -6.50078125 30.86191406 -6.859375 31.89453125 C-7.17358398 32.80050049 -7.48779297 33.70646973 -7.81152344 34.63989258 C-9.50867847 39.43815566 -11.26067674 44.21686103 -13 49 C-4.75 49 3.5 49 12 49 C11.071875 46.195 10.14375 43.39 9.1875 40.5 C8.75860474 39.1996582 8.75860474 39.1996582 8.32104492 37.87304688 C6.65865118 32.86828319 4.87913733 27.92751567 3 23 C2 20.33333333 1 17.66666667 0 15 C-0.33 15 -0.66 15 -1 15 Z " fill="#928880" transform="translate(167,180)"/>
<path d="M0 0 C0.33 0 0.66 0 1 0 C0.67 2.97 0.34 5.94 0 9 C0.99 9.33 1.98 9.66 3 10 C2.61908203 10.92619141 2.61908203 10.92619141 2.23046875 11.87109375 C0.48923737 16.15569681 -1.21478771 20.44926506 -2.75 24.8125 C-2.99234375 25.49957031 -3.2346875 26.18664062 -3.484375 26.89453125 C-4.19822394 29.44813323 -4.19822394 29.44813323 -4 34 C-0.37 34.33 3.26 34.66 7 35 C7.33 36.32 7.66 37.64 8 39 C4.31300513 39.1984578 0.62540378 39.38178602 -3.0625 39.5625 C-4.10083984 39.61857422 -5.13917969 39.67464844 -6.20898438 39.73242188 C-11.64135615 39.99110625 -16.65204485 40.02407652 -22 39 C-21.67 37.68 -21.34 36.36 -21 35 C-20.41992188 35.04125 -19.83984375 35.0825 -19.2421875 35.125 C-16.25182814 34.96709324 -14.58124846 34.56400769 -12 33 C-9.57769819 28.64425093 -8.16875428 24.09980182 -6.72802734 19.34326172 C-5.48766258 15.35096763 -4.03961373 11.43310229 -2.625 7.5 C-1.74551983 5.00154408 -0.87280365 2.50079912 0 0 Z " fill="#ABA098" transform="translate(151,223)"/>
<path d="M0 0 C4.82600552 3.41970812 6.12383458 8.92314848 8.01171875 14.265625 C8.57050468 15.80316437 8.57050468 15.80316437 9.14057922 17.37176514 C10.33344915 20.66080349 11.5108927 23.95511324 12.6875 27.25 C13.84469206 30.4584565 15.00505714 33.66575215 16.165802 36.8729248 C16.9376472 39.00852789 17.70708042 41.14500426 18.47409058 43.28234863 C20.4723853 48.83974819 22.51241204 54.3769557 24.62353516 59.89257812 C25.04592972 60.99913757 25.46832428 62.10569702 25.90351868 63.24578857 C26.7161878 65.36655612 27.53527738 67.48487715 28.36149597 69.60040283 C28.72278091 70.54405701 29.08406586 71.48771118 29.45629883 72.45996094 C29.94082268 73.7066153 29.94082268 73.7066153 30.43513489 74.97845459 C31 77 31 77 30 79 C27.05159594 73.33089602 24.61751941 67.65422594 22.42578125 61.65625 C22.10018723 60.77690292 21.7745932 59.89755585 21.43913269 58.99156189 C20.39265775 56.16259488 19.35246733 53.33136498 18.3125 50.5 C17.59549991 48.55720772 16.87805048 46.6145812 16.16015625 44.67211914 C15.09358343 41.78610125 14.02730249 38.89998075 12.96279907 36.01319885 C10.97882819 30.63501231 8.97949136 25.26322269 6.94921875 19.90234375 C6.52535889 18.78214844 6.10149902 17.66195312 5.66479492 16.5078125 C4.90818092 14.51343444 4.14935436 12.51989386 3.38793945 10.52734375 C3.06398193 9.67140625 2.74002441 8.81546875 2.40625 7.93359375 C1.99342773 6.8516272 1.99342773 6.8516272 1.57226562 5.74780273 C1 4 1 4 1 2 C-1.31 2.33 -3.62 2.66 -6 3 C-7.32 6.63 -8.64 10.26 -10 14 C-10.66 14 -11.32 14 -12 14 C-12.07347656 15.05316406 -12.14695312 16.10632813 -12.22265625 17.19140625 C-13.00012771 23.39068222 -15.29340924 29.10248617 -17.4375 34.9375 C-17.84548828 36.08541016 -18.25347656 37.23332031 -18.67382812 38.41601562 C-21.74255199 46.87127599 -21.74255199 46.87127599 -24 48 C-23.29857399 42.54841052 -21.68590954 37.56036798 -19.9375 32.375 C-19.63239502 31.4665332 -19.32729004 30.55806641 -19.01293945 29.62207031 C-16.73229259 22.93401718 -14.28211449 16.32238523 -11.6875 9.75 C-11.18174438 8.45521729 -11.18174438 8.45521729 -10.66577148 7.13427734 C-10.34680908 6.34230957 -10.02784668 5.5503418 -9.69921875 4.734375 C-9.41908936 4.03538086 -9.13895996 3.33638672 -8.8503418 2.61621094 C-6.98998713 -0.91969142 -3.54642987 -0.35464299 0 0 Z " fill="#A59A92" transform="translate(67,20)"/>
<path d="M0 0 C0.66 0 1.32 0 2 0 C1.67 1.98 1.34 3.96 1 6 C1.33 5.01 1.66 4.02 2 3 C2.66 3 3.32 3 4 3 C2.543373 7.94839953 1.06113083 12.8743409 -0.625 17.75 C-1.77610572 21.14304985 -2.54294158 24.43494433 -3 28 C0.96 28.33 4.92 28.66 9 29 C9.33 29.99 9.66 30.98 10 32 C0.43 32 -9.14 32 -19 32 C-19.33 31.34 -19.66 30.68 -20 30 C-19.09507813 29.92265625 -19.09507813 29.92265625 -18.171875 29.84375 C-17.37265625 29.7303125 -16.5734375 29.616875 -15.75 29.5 C-14.96109375 29.4071875 -14.1721875 29.314375 -13.359375 29.21875 C-7.13721586 26.00465455 -5.35402752 15.71275078 -3.25 9.5 C-2.93417969 8.5821875 -2.61835937 7.664375 -2.29296875 6.71875 C-1.52367829 4.48081411 -0.75947442 2.241282 0 0 Z " fill="#9D928A" transform="translate(41,71)"/>
<path d="M0 0 C0.99 0.33 1.98 0.66 3 1 C4.10527403 4.3158221 4.14035161 6.81082747 4.16113281 10.30395508 C4.17074036 11.60573196 4.1803479 12.90750885 4.19024658 14.24873352 C4.19509497 15.67233098 4.1993737 17.09593048 4.203125 18.51953125 C4.20887922 19.98060609 4.21463692 21.44168092 4.22039795 22.90275574 C4.23090075 25.96683096 4.23674794 29.03088001 4.24023438 32.0949707 C4.24571365 36.01235101 4.26973226 39.92938279 4.29820633 43.84665394 C4.31687441 46.86562597 4.32204054 49.8845148 4.32357025 52.90353966 C4.32658857 54.34717397 4.33458936 55.79080711 4.34775543 57.23438454 C4.36489916 59.25880628 4.36107888 61.28337229 4.35644531 63.30786133 C4.36009094 64.45797195 4.36373657 65.60808258 4.36749268 66.79304504 C3.94724208 70.46039634 2.93232704 72.86886234 1 76 C-1.48046875 77.0234375 -1.48046875 77.0234375 -4.1875 77.375 C-5.53908203 77.57222656 -5.53908203 77.57222656 -6.91796875 77.7734375 C-7.94857422 77.88558594 -7.94857422 77.88558594 -9 78 C-8.67 77.01 -8.34 76.02 -8 75 C-6.2984375 74.7834375 -6.2984375 74.7834375 -4.5625 74.5625 C-1.19222799 74.38828522 -1.19222799 74.38828522 0 73 C1.65607392 58.08504053 1.11475392 42.91465598 1.0625 27.9375 C1.05747291 25.41341235 1.05291215 22.88932373 1.04882812 20.36523438 C1.03792311 14.24346797 1.02128167 8.12173867 1 2 C0.34 1.67 -0.32 1.34 -1 1 C-0.67 0.67 -0.34 0.34 0 0 Z " fill="#7B6F68" transform="translate(94,104)"/>
<path d="M0 0 C1.16660156 -0.01224609 2.33320313 -0.02449219 3.53515625 -0.03710938 C5.20384766 -0.04000977 5.20384766 -0.04000977 6.90625 -0.04296875 C7.93041016 -0.04707764 8.95457031 -0.05118652 10.00976562 -0.05541992 C12.5 0.1875 12.5 0.1875 14.5 2.1875 C12.32707901 4.03850677 10.90467142 5.11486667 8.0625 5.625 C2.72269696 6.79715189 -0.34604261 10.98222348 -3.5 15.1875 C-4.82 14.8575 -6.14 14.5275 -7.5 14.1875 C-6.18 11.2175 -4.86 8.2475 -3.5 5.1875 C-4.758125 5.043125 -6.01625 4.89875 -7.3125 4.75 C-9.92667123 4.45001314 -11.97439892 4.02936703 -14.5 3.1875 C-14.5 2.5275 -14.5 1.8675 -14.5 1.1875 C-10.26620814 -0.92939593 -4.65160218 0.00256995 0 0 Z " fill="#726861" transform="translate(146.5,99.8125)"/>
<path d="M0 0 C0.66 0 1.32 0 2 0 C2.268125 0.89976563 2.53625 1.79953125 2.8125 2.7265625 C5.68038806 12.18821673 8.92479539 21.46976061 12.40820312 30.72314453 C12.74400391 31.62532715 13.07980469 32.52750977 13.42578125 33.45703125 C13.72911377 34.26116455 14.03244629 35.06529785 14.3449707 35.89379883 C15 38 15 38 15 41 C5.76 41 -3.48 41 -13 41 C-12.34 39.68 -11.68 38.36 -11 37 C-11 37.66 -11 38.32 -11 39 C-7.54168414 39.02894547 -4.08339928 39.04678 -0.625 39.0625 C0.35984375 39.07087891 1.3446875 39.07925781 2.359375 39.08789062 C3.30039062 39.09111328 4.24140625 39.09433594 5.2109375 39.09765625 C6.08024902 39.10289307 6.94956055 39.10812988 7.84521484 39.11352539 C10.05049994 39.14122351 10.05049994 39.14122351 12 38 C11.70230713 37.16750732 11.40461426 36.33501465 11.09790039 35.47729492 C9.99250174 32.38558924 8.88738943 29.29378151 7.7824707 26.2019043 C7.30439527 24.8642982 6.82620608 23.52673276 6.34790039 22.18920898 C5.66001887 20.26556937 4.97254793 18.34178345 4.28515625 16.41796875 C3.87144775 15.26063232 3.45773926 14.1032959 3.03149414 12.91088867 C2.33561958 10.94712243 1.65883376 8.97650129 1 7 C0.01 9.64 -0.98 12.28 -2 15 C-2.33 15 -2.66 15 -3 15 C-2.5547115 9.72684667 -1.91626837 4.98229776 0 0 Z " fill="#B0A69F" transform="translate(58,31)"/>
<path d="M0 0 C5.94 0 11.88 0 18 0 C18.33 0.99 18.66 1.98 19 3 C18.43410156 3.12117188 17.86820313 3.24234375 17.28515625 3.3671875 C16.18494141 3.61855469 16.18494141 3.61855469 15.0625 3.875 C14.33160156 4.03742188 13.60070312 4.19984375 12.84765625 4.3671875 C10.79299706 4.82961523 10.79299706 4.82961523 10 7 C9.9132833 9.59124427 9.88441461 12.15518368 9.90234375 14.74609375 C9.90446617 15.89646873 9.90446617 15.89646873 9.90663147 17.07008362 C9.91223539 19.52592848 9.92477805 21.98168269 9.9375 24.4375 C9.94251542 26.08919138 9.94707825 27.7408842 9.95117188 29.39257812 C9.9593498 32.42116117 9.97004637 35.44971016 9.98413086 38.47827148 C9.99392657 40.65216536 10 42.82608406 10 45 C8.515 45.495 8.515 45.495 7 46 C6.90083274 40.55571763 6.82839091 35.11196552 6.78027344 29.66699219 C6.76020661 27.81631304 6.73294655 25.96569691 6.69824219 24.11523438 C6.64950567 21.44906023 6.62698213 18.78372713 6.609375 16.1171875 C6.58872986 15.29507782 6.56808472 14.47296814 6.54681396 13.62594604 C6.54468538 8.12802424 7.51883133 5.28219884 11 1 C7.37 1 3.74 1 0 1 C0 0.67 0 0.34 0 0 Z " fill="#968B84" transform="translate(103,100)"/>
<path d="M0 0 C1.65 0 3.3 0 5 0 C6.18401371 2.82713477 7.34715507 5.6601735 8.5 8.5 C8.83386719 9.29148438 9.16773438 10.08296875 9.51171875 10.8984375 C11.63497606 16.18491489 12.55522055 20.2963707 12 26 C11.34 26.66 10.68 27.32 10 28 C17.92 28.33 25.84 28.66 34 29 C34 29.33 34 29.66 34 30 C29.80125838 30.19279158 25.60222204 30.3714261 21.40234375 30.53710938 C19.97444624 30.59541735 18.54669964 30.65755423 17.11914062 30.72363281 C15.06408166 30.81808538 13.00886899 30.89863877 10.953125 30.9765625 C9.09929199 31.05511475 9.09929199 31.05511475 7.20800781 31.13525391 C4.13525065 31.00570235 2.554094 30.63395097 0 29 C0.495 27.515 0.495 27.515 1 26 C3.97 25.67 6.94 25.34 10 25 C9.61008563 18.37145574 7.59152731 12.9761269 5.05859375 6.85546875 C4 4 4 4 4 1 C2.68 0.67 1.36 0.34 0 0 Z " fill="#A69C94" transform="translate(177,232)"/>
<path d="M0 0 C0.33 0 0.66 0 1 0 C1 1.98 1 3.96 1 6 C5.62 6 10.24 6 15 6 C15.33 6.99 15.66 7.98 16 9 C6.43 9 -3.14 9 -13 9 C-13.33 8.34 -13.66 7.68 -14 7 C-11.68860865 5.84430433 -10.13061411 5.86807421 -7.5625 5.75 C-5.16110131 5.58168625 -5.16110131 5.58168625 -3 5 C-0.93545998 2.59256899 -0.93545998 2.59256899 0 0 Z " fill="#3B3128" transform="translate(35,94)"/>
<path d="M0 0 C1.32 0.66 2.64 1.32 4 2 C0.35059293 7.02628959 -3.44171282 11.68532697 -7.77734375 16.140625 C-9.23341619 17.92083163 -9.23341619 17.92083163 -8.7578125 20.0625 C-8.50773438 20.701875 -8.25765625 21.34125 -8 22 C-7.649375 22.9075 -7.29875 23.815 -6.9375 24.75 C-6.628125 25.4925 -6.31875 26.235 -6 27 C-11.74504249 21.69688385 -11.74504249 21.69688385 -12 18 C-11.67 17.34 -11.34 16.68 -11 16 C-11.99 16.66 -12.98 17.32 -14 18 C-12.64327863 14.93233936 -11.1372507 12.96343247 -8.6875 10.6875 C-5.27305492 7.38734596 -2.64983738 3.93460702 0 0 Z " fill="#8A8078" transform="translate(138,113)"/>
<path d="M0 0 C3.59617549 3.24874624 4.68037979 6.82841508 6.25 11.3125 C6.53101562 12.05951172 6.81203125 12.80652344 7.1015625 13.57617188 C8.70923117 18.10868329 9.30946569 21.21131441 8 26 C7.34 26 6.68 26 6 26 C6 26.66 6 27.32 6 28 C7.32 28.33 8.64 28.66 10 29 C5.38 29 0.76 29 -4 29 C-3.505 27.515 -3.505 27.515 -3 26 C-0.03 25.67 2.94 25.34 6 25 C5.61139694 18.39374804 3.60618202 13.04424257 1.05859375 6.953125 C0 4 0 4 0 0 Z " fill="#9A9088" transform="translate(73,74)"/>
<path d="M0 0 C0.66 0 1.32 0 2 0 C1.25317097 8.12498474 -0.23925496 15.50832436 -2.9375 23.1875 C-3.19031738 23.91767334 -3.44313477 24.64784668 -3.70361328 25.40014648 C-5.00888216 28.96723952 -6.2023055 31.44943275 -9 34 C-8.49421677 27.05953007 -6.93651674 21.24737799 -4.5 14.75 C-3.8615634 13.01673438 -3.22604861 11.28238917 -2.59375 9.546875 C-2.31208984 8.79245117 -2.03042969 8.03802734 -1.74023438 7.26074219 C-0.95424346 4.86025541 -0.44879749 2.48371098 0 0 Z " fill="#8E837B" transform="translate(55,34)"/>
<path d="M0 0 C1.29065057 3.8719517 0.22324098 6.44232601 -0.9375 10.1875 C-1.13279297 10.84169922 -1.32808594 11.49589844 -1.52929688 12.16992188 C-2.01182563 13.78227407 -2.50490205 15.39146289 -3 17 C-2.34 17 -1.68 17 -1 17 C-1 17.66 -1 18.32 -1 19 C2.96 19.33 6.92 19.66 11 20 C11 20.33 11 20.66 11 21 C2.09 21 -6.82 21 -16 21 C-16 20.34 -16 19.68 -16 19 C-15.39671875 18.96003906 -14.7934375 18.92007812 -14.171875 18.87890625 C-11.53836137 18.53485044 -9.42922132 18.08852651 -7 17 C-4.94265871 14.23944319 -4.02372736 11.26248467 -3 8 C-2.42284453 6.47681145 -1.83998539 4.95576514 -1.25 3.4375 C-0.8375 2.303125 -0.425 1.16875 0 0 Z " fill="#473D34" transform="translate(147,240)"/>
<path d="M0 0 C0.33 0 0.66 0 1 0 C1.11618764 3.91641711 1.18724654 7.83239101 1.25 11.75 C1.28351563 12.86117187 1.31703125 13.97234375 1.3515625 15.1171875 C1.36445312 16.18710938 1.37734375 17.25703125 1.390625 18.359375 C1.41157227 19.34389648 1.43251953 20.32841797 1.45410156 21.34277344 C0.87452538 24.73422888 -0.34967942 25.88219753 -3 28 C-5.140625 28.609375 -5.140625 28.609375 -7.25 28.75 C-8.4875 28.8325 -9.725 28.915 -11 29 C-10.505 27.515 -10.505 27.515 -10 26 C-8.865625 25.855625 -7.73125 25.71125 -6.5625 25.5625 C-3.19222799 25.38828522 -3.19222799 25.38828522 -2 24 C-1.78632549 21.28752076 -1.6226678 18.59186451 -1.5 15.875 C-1.25071956 10.52008674 -0.84299287 5.29680522 0 0 Z " fill="#ADA39B" transform="translate(96,153)"/>
<path d="M0 0 C0.33 0 0.66 0 1 0 C0.49544502 6.85641839 -0.98462779 12.59555567 -3.4375 19 C-3.90639648 20.28583984 -3.90639648 20.28583984 -4.38476562 21.59765625 C-6.73464926 27.86732463 -6.73464926 27.86732463 -9 29 C-8.29388919 23.15497162 -6.3887099 17.79476683 -4.5 12.25 C-4.01853516 10.81333984 -4.01853516 10.81333984 -3.52734375 9.34765625 C-1.15496483 2.30992965 -1.15496483 2.30992965 0 0 Z " fill="#ADA39A" transform="translate(52,39)"/>
<path d="M0 0 C0.66 0 1.32 0 2 0 C0.67554915 6.62894341 -1.21668115 12.75290042 -3.625 19.0625 C-3.94984375 19.92810547 -4.2746875 20.79371094 -4.609375 21.68554688 C-5.40091682 23.79244496 -6.19783722 25.89712802 -7 28 C-7.33 28 -7.66 28 -8 28 C-7.45018084 21.95198929 -6.09570426 16.69398894 -4 11 C-3.34 11 -2.68 11 -2 11 C-1.7834375 9.1128125 -1.7834375 9.1128125 -1.5625 7.1875 C-1.26251314 4.57332877 -0.84186703 2.52560108 0 0 Z " fill="#B0A59D" transform="translate(165,192)"/>
<path d="M0 0 C0.99 0.33 1.98 0.66 3 1 C2.75765625 1.55945313 2.5153125 2.11890625 2.265625 2.6953125 C-0.77472572 9.96876691 -2.94043683 17.39714448 -5 25 C-5.66 25 -6.32 25 -7 25 C-6.45339344 18.91121808 -5.07141474 13.71354433 -2.9375 8 C-2.65583984 7.22527344 -2.37417969 6.45054687 -2.08398438 5.65234375 C-1.39679702 3.76549033 -0.69945987 1.88233849 0 0 Z " fill="#ABA199" transform="translate(151,232)"/>
<path d="M0 0 C1.02489312 3.07467935 0.98030737 4.43152376 0.5625 7.5625 C0.14014276 10.77214881 0.14014276 10.77214881 0 14 C0.66 14.33 1.32 14.66 2 15 C0.68 15 -0.64 15 -2 15 C-2.33 13.68 -2.66 12.36 -3 11 C-3.99 12.32 -4.98 13.64 -6 15 C-6.66 14.67 -7.32 14.34 -8 14 C-6 10 -4 6 -2 2 C-1.34 2 -0.68 2 0 2 C0 1.34 0 0.68 0 0 Z " fill="#837971" transform="translate(38,85)"/>
<path d="M0 0 C2.32100162 3.48150244 3.67675155 7.10566684 5.125 11 C5.40214844 11.72445312 5.67929688 12.44890625 5.96484375 13.1953125 C7.11095711 16.25537872 8 18.70542099 8 22 C6.68 21.67 5.36 21.34 4 21 C4.66 21 5.32 21 6 21 C5.566875 19.98679687 5.13375 18.97359375 4.6875 17.9296875 C4.12444522 16.57835603 3.56197613 15.22678041 3 13.875 C2.57074219 12.87726562 2.57074219 12.87726562 2.1328125 11.859375 C0.43704298 7.74107759 -0.3391847 4.53659537 0 0 Z " fill="#998F87" transform="translate(65,50)"/>
<path d="M0 0 C5.94 0 11.88 0 18 0 C18.33 0.99 18.66 1.98 19 3 C14.545 3.495 14.545 3.495 10 4 C10.33 3.01 10.66 2.02 11 1 C7.37 1 3.74 1 0 1 C0 0.67 0 0.34 0 0 Z " fill="#AAA39D" transform="translate(103,100)"/>
<path d="M0 0 C0.33 0.66 0.66 1.32 1 2 C1.66 2.33 2.32 2.66 3 3 C2.484375 3.5775 1.96875 4.155 1.4375 4.75 C-0.21753136 6.83046099 -0.21753136 6.83046099 0.1875 8.9375 C0.455625 9.618125 0.72375 10.29875 1 11 C1.350625 11.9075 1.70125 12.815 2.0625 13.75 C2.371875 14.4925 2.68125 15.235 3 16 C-2.74504249 10.69688385 -2.74504249 10.69688385 -3 7 C-2.67 6.34 -2.34 5.68 -2 5 C-2.99 5.66 -3.98 6.32 -5 7 C-3.70700306 4.11562221 -2.34058637 2.12780579 0 0 Z " fill="#A39890" transform="translate(129,124)"/>
<path d="M0 0 C0.66 0.33 1.32 0.66 2 1 C0.68 4.63 -0.64 8.26 -2 12 C-2.66 12 -3.32 12 -4 12 C-4.33 14.64 -4.66 17.28 -5 20 C-5.33 20 -5.66 20 -6 20 C-5.58915072 13.6318361 -4.78905593 4.78905593 0 0 Z " fill="#A0958D" transform="translate(59,22)"/>
<path d="M0 0 C0.33 0 0.66 0 1 0 C0.88506243 1.89646998 0.75760358 3.79218332 0.625 5.6875 C0.55539063 6.74324219 0.48578125 7.79898438 0.4140625 8.88671875 C0.01239911 11.90677269 -0.74069019 14.24078054 -2 17 C-4 14 -4 14 -3.57421875 11.40625 C-3.13529297 9.96765625 -3.13529297 9.96765625 -2.6875 8.5 C-2.40261719 7.5409375 -2.11773437 6.581875 -1.82421875 5.59375 C-1.23026378 3.72462155 -0.62019543 1.86058628 0 0 Z " fill="#857A73" transform="translate(151,223)"/>
<path d="M0 0 C2.97 0 5.94 0 9 0 C9 0.66 9 1.32 9 2 C10.32 2.33 11.64 2.66 13 3 C8.38 3 3.76 3 -1 3 C-0.67 2.01 -0.34 1.02 0 0 Z " fill="#6F665D" transform="translate(70,100)"/>
<path d="M0 0 C3.3 0 6.6 0 10 0 C10.33 0.99 10.66 1.98 11 3 C7.04 3 3.08 3 -1 3 C-0.67 2.01 -0.34 1.02 0 0 Z " fill="#716961" transform="translate(40,100)"/>
<path d="M0 0 C0.33 0 0.66 0 1 0 C0.63495936 5.66442374 -0.0554321 10.00703705 -3 15 C-4.43410153 11.21180727 -3.51009497 8.93478721 -2.0625 5.25 C-1.49208984 3.77273437 -1.49208984 3.77273437 -0.91015625 2.265625 C-0.60980469 1.51796875 -0.30945312 0.7703125 0 0 Z " fill="#B3A9A2" transform="translate(47,53)"/>
<path d="M0 0 C0.33 1.32 0.66 2.64 1 4 C0.01 4.495 0.01 4.495 -1 5 C-1.309375 5.66 -1.61875 6.32 -1.9375 7 C-3 9 -3 9 -6 10 C-6.33 9.34 -6.66 8.68 -7 8 C-6.01 7.34 -5.02 6.68 -4 6 C-2.9590934 4.35857037 -1.95495674 2.69287785 -1 1 C-0.67 0.67 -0.34 0.34 0 0 Z " fill="#756B62" transform="translate(117,138)"/>
<path d="M0 0 C4.455 0.99 4.455 0.99 9 2 C9 2.66 9 3.32 9 4 C6.36 4.33 3.72 4.66 1 5 C0.67 3.35 0.34 1.7 0 0 Z " fill="#70665E" transform="translate(113,178)"/>
<path d="M0 0 C3 2 3 2 3.75 5.5 C4 9 4 9 3 11 C1.68 10.67 0.36 10.34 -1 10 C-0.34 10 0.32 10 1 10 C0.67 6.7 0.34 3.4 0 0 Z " fill="#A49A92" transform="translate(78,89)"/>
<path d="M0 0 C0.66 0 1.32 0 2 0 C1.7451971 1.96048352 1.47063056 3.91840673 1.1875 5.875 C1.03667969 6.96554688 0.88585938 8.05609375 0.73046875 9.1796875 C0 12 0 12 -3 14 C-2.80083984 13.11248047 -2.80083984 13.11248047 -2.59765625 12.20703125 C-1.68994822 8.14553475 -0.7908887 4.08625829 0 0 Z " fill="#6C6159" transform="translate(55,34)"/>
<path d="M0 0 C-0.33 0.99 -0.66 1.98 -1 3 C-3.31 3 -5.62 3 -8 3 C-8.33 2.34 -8.66 1.68 -9 1 C-6.04335481 -0.4783226 -3.25770263 -0.06032783 0 0 Z " fill="#787068" transform="translate(30,100)"/>
<path d="M0 0 C2.97 0.33 5.94 0.66 9 1 C9 1.66 9 2.32 9 3 C9.66 3.33 10.32 3.66 11 4 C3.375 3.125 3.375 3.125 0 2 C0 1.34 0 0.68 0 0 Z " fill="#9E948D" transform="translate(132,101)"/>
<path d="M0 0 C2.97 0 5.94 0 9 0 C5.99382731 3.00617269 3.17618402 2.59585316 -1 3 C-0.67 2.01 -0.34 1.02 0 0 Z " fill="#958C85" transform="translate(86,179)"/>
<path d="M0 0 C0 0.66 0 1.32 0 2 C-2.64 2 -5.28 2 -8 2 C-8.33 1.34 -8.66 0.68 -9 0 C-5.52176885 -1.15941038 -3.54104422 -0.70820884 0 0 Z " fill="#746961" transform="translate(158,181)"/>
</svg>
